<?xml version="1.0" encoding="UTF-8"?>
<svg width="798" height="66" version="1.1" viewBox="0 0 319.96 26.458" xmlns="http://www.w3.org/2000/svg">
  <path d="m22.47 3.767a13.229 13.229 0 0 0-9.24-3.767 13.229 13.229 0 0 0-13.23 13.229 13.229 13.229 0 0 0 13.229 13.229 13.229 13.229 0 0 0 9.22-3.787l-1.328-1.328a11.321 11.321 0 0 1-7.892 3.208 11.321 11.321 0 0 1-11.321-11.321 11.321 11.321 0 0 1 11.32-11.322 11.321 11.321 0 0 1 7.893 3.21z" fill="#9793ff"/>
  <path d="m16.766 9.113 0.01 3.338h1.839c0.913-1e-3 1.934 0.017 1.935-1.72 2e-3 -1.617-1.129-1.623-1.853-1.621zm-1.557-1.594h3.488c0.931 0 3.414 0.016 3.425 3.211 0.011 3.297-2.49 3.333-3.434 3.33l-1.9-4e-3 -0.034 4.883h-1.545z" fill="#ff9736"/>
  <path d="m6.444 7.52h6.563v1.59l-4.75-8e-3v3.348h4.26v1.607h-4.26v4.88h-1.813z" fill="#ff9736"/>
  <path d="m48.519 8.2111-2.8255 10.731h-1.7284l-1.8937-6.6279q-0.1052-0.3607-0.22544-0.81158-0.1052-0.45088-0.19538-0.84164-0.09017-0.40579-0.12023-0.57111-0.01503 0.16532-0.09018 0.55608t-0.19538 0.85667q-0.1052 0.46591-0.21041 0.85667l-1.8636 6.5828h-1.7284l-2.8105-10.731h1.6683l1.5781 6.3424q0.16532 0.64626 0.30059 1.3677 0.13526 0.70638 0.21041 1.2625 0.07515-0.57111 0.22544-1.3075 0.15029-0.73644 0.33064-1.3226l1.7885-6.3424h1.6232l1.8486 6.3724q0.18035 0.60117 0.33064 1.3376 0.15029 0.73644 0.22544 1.2625 0.07515-0.54105 0.21041-1.2625 0.15029-0.72141 0.31562-1.3677l1.5781-6.3424zm4.2833 2.4798q1.5931 0 2.5099 0.99193 0.91679 0.9769 0.91679 2.6752v0.88673h-5.4406q0.03006 1.2324 0.66129 1.8937 0.63123 0.66129 1.7735 0.66129 0.7665 0 1.3677-0.13526 0.6162-0.15029 1.2474-0.43585v1.3226q-0.6162 0.27053-1.2474 0.40579-0.6162 0.13526-1.4729 0.13526-1.1723 0-2.074-0.46591-0.88673-0.46591-1.3977-1.3827-0.49597-0.93182-0.49597-2.2995 0-1.3526 0.45088-2.2995 0.46591-0.94685 1.2775-1.4428 0.82661-0.511 1.9238-0.511zm0.01503 1.2324q-0.8717 0-1.3827 0.55608-0.511 0.55608-0.6162 1.5781h3.8174q-0.01503-0.94685-0.46591-1.533-0.43585-0.60117-1.3526-0.60117zm6.9886 7.0187h-1.5931v-11.422h1.5931zm5.7863 0.15029q-1.1122 0-1.9688-0.43585-0.84164-0.45088-1.3226-1.3677-0.46591-0.91679-0.46591-2.3596 0-1.4879 0.49597-2.4197 0.511-0.94685 1.3827-1.3827 0.88673-0.43585 1.9989-0.43585 0.63123 0 1.2174 0.13526 0.60117 0.13526 1.007 0.33064l-0.48094 1.2925q-0.39076-0.16532-0.8717-0.28556-0.46591-0.12023-0.90176-0.12023-2.2093 0-2.2093 2.8706 0 1.3977 0.54106 2.1191 0.55608 0.70638 1.6081 0.70638 0.64626 0 1.1723-0.13526 0.54105-0.15029 0.9769-0.37573v1.3677q-0.42082 0.24047-0.94685 0.3607-0.511 0.13526-1.2324 0.13526zm11.227-4.2232q0 2.029-1.037 3.1261-1.037 1.0971-2.7954 1.0971-1.0971 0-1.9538-0.49597-0.84164-0.49597-1.3376-1.4278-0.48094-0.94685-0.48094-2.2995 0-1.9989 1.022-3.081 1.022-1.0971 2.7954-1.0971 1.1122 0 1.9538 0.49597 0.85667 0.48094 1.3376 1.4128 0.49597 0.93182 0.49597 2.2694zm-5.9666 0q0 1.3677 0.511 2.1642 0.52603 0.78152 1.6532 0.78152 1.1122 0 1.6232-0.78152 0.52603-0.79655 0.52603-2.1642 0-1.3526-0.52603-2.1191-0.511-0.76649-1.6382-0.76649-1.1272 0-1.6382 0.76649t-0.511 2.1191zm17.043-4.1781q1.3827 0 2.074 0.70638 0.69135 0.70638 0.69135 2.2694v5.2753h-1.5931v-5.0649q0-1.8636-1.518-1.8636-1.0971 0-1.563 0.66129-0.45088 0.66129-0.45088 1.9238v4.3435h-1.5931v-5.0649q0-1.8636-1.518-1.8636-1.1422 0-1.5781 0.73644-0.42082 0.73644-0.42082 2.1041v4.088h-1.5931v-8.1008h1.2625l0.22544 1.0821h0.07515q0.37573-0.60117 1.007-0.91679 0.63123-0.31562 1.3977-0.31562 1.8486 0 2.4648 1.3226h0.07515q0.40579-0.67632 1.0821-0.99193 0.69135-0.33064 1.4729-0.33064zm8.3864 0q1.5931 0 2.5099 0.99193 0.91679 0.9769 0.91679 2.6752v0.88673h-5.4406q0.03006 1.2324 0.66129 1.8937 0.63123 0.66129 1.7735 0.66129 0.7665 0 1.3677-0.13526 0.6162-0.15029 1.2474-0.43585v1.3226q-0.6162 0.27053-1.2474 0.40579-0.6162 0.13526-1.4729 0.13526-1.1723 0-2.074-0.46591-0.88673-0.46591-1.3977-1.3827-0.49597-0.93182-0.49597-2.2995 0-1.3526 0.45088-2.2995 0.46591-0.94685 1.2775-1.4428 0.82661-0.511 1.9238-0.511zm0.01503 1.2324q-0.8717 0-1.3827 0.55608-0.511 0.55608-0.6162 1.5781h3.8174q-0.01503-0.94685-0.46591-1.533-0.43585-0.60117-1.3526-0.60117zm13.106 7.0187h-1.6232v-9.3332h-3.2163v-1.3977h8.0557v1.3977h-3.2163zm10.761-4.0729q0 2.029-1.037 3.1261-1.037 1.0971-2.7954 1.0971-1.0971 0-1.9538-0.49597-0.84164-0.49597-1.3376-1.4278-0.48094-0.94685-0.48094-2.2995 0-1.9989 1.022-3.081 1.022-1.0971 2.7954-1.0971 1.1122 0 1.9538 0.49597 0.85667 0.48094 1.3376 1.4128 0.49596 0.93182 0.49596 2.2694zm-5.9666 0q0 1.3677 0.511 2.1642 0.52602 0.78152 1.6532 0.78152 1.1122 0 1.6232-0.78152 0.52602-0.79655 0.52602-2.1642 0-1.3526-0.52602-2.1191-0.511-0.76649-1.6382-0.76649-1.1272 0-1.6382 0.76649t-0.511 2.1191zm15.691 4.0729h-1.6232v-9.3332h-3.2163v-1.3977h8.0557v1.3977h-3.2163zm6.2372-8.3863q0 0.40579-0.0301 0.76649-0.015 0.3607-0.0451 0.6162h0.0902q0.39076-0.63123 1.037-0.93182 0.66129-0.30059 1.4278-0.30059 1.4278 0 2.1792 0.70638 0.7665 0.69135 0.7665 2.2544v5.2753h-1.5781v-5.0498q0-1.8787-1.6682-1.8787-1.2474 0-1.7133 0.75146-0.46591 0.73644-0.46591 2.1041v4.0729h-1.5931v-11.422h1.5931zm11.047 0.13526q1.5931 0 2.5099 0.99193 0.91679 0.9769 0.91679 2.6752v0.88673h-5.4406q0.03 1.2324 0.66128 1.8937 0.63124 0.66129 1.7735 0.66129 0.7665 0 1.3677-0.13526 0.6162-0.15029 1.2474-0.43585v1.3226q-0.6162 0.27053-1.2474 0.40579-0.6162 0.13526-1.4729 0.13526-1.1723 0-2.074-0.46591-0.88672-0.46591-1.3977-1.3827-0.49597-0.93182-0.49597-2.2995 0-1.3526 0.45088-2.2995 0.46591-0.94685 1.2775-1.4428 0.82661-0.511 1.9238-0.511zm0.015 1.2324q-0.8717 0-1.3827 0.55608-0.511 0.55608-0.61621 1.5781h3.8174q-0.015-0.94685-0.46591-1.533-0.43585-0.60117-1.3526-0.60117zm14.113-2.4648q-1.6081 0-2.5249 1.0971-0.91679 1.0971-0.91679 3.0359 0 1.9087 0.85667 3.0059 0.8717 1.0971 2.6001 1.0971 0.69135 0 1.3226-0.13526 0.64626-0.13526 1.2775-0.33064v1.3977q-0.63123 0.24047-1.2925 0.34567-0.64626 0.12023-1.533 0.12023-1.6532 0-2.7654-0.67632-1.0971-0.69135-1.6382-1.9238-0.54105-1.2474-0.54105-2.9157 0-1.6232 0.60117-2.8706 0.60117-1.2474 1.7434-1.9388 1.1573-0.70638 2.8255-0.70638 0.81158 0 1.5931 0.16532 0.78153 0.16532 1.4278 0.48094l-0.60117 1.3526q-0.511-0.24047-1.1272-0.42082-0.60117-0.18035-1.3076-0.18035zm11.903 5.4105q0 2.029-1.037 3.1261-1.037 1.0971-2.7954 1.0971-1.0971 0-1.9538-0.49597-0.84164-0.49597-1.3376-1.4278-0.48093-0.94685-0.48093-2.2995 0-1.9989 1.022-3.081 1.022-1.0971 2.7954-1.0971 1.1122 0 1.9538 0.49597 0.85667 0.48094 1.3376 1.4128 0.49597 0.93182 0.49597 2.2694zm-5.9666 0q0 1.3677 0.511 2.1642 0.52602 0.78152 1.6532 0.78152 1.1122 0 1.6232-0.78152 0.52603-0.79655 0.52603-2.1642 0-1.3526-0.52603-2.1191-0.51099-0.76649-1.6382-0.76649t-1.6382 0.76649q-0.511 0.76649-0.511 2.1191zm17.043-4.1781q1.3827 0 2.074 0.70638 0.69135 0.70638 0.69135 2.2694v5.2753h-1.5931v-5.0649q0-1.8636-1.518-1.8636-1.0971 0-1.563 0.66129-0.45088 0.66129-0.45088 1.9238v4.3435h-1.5931v-5.0649q0-1.8636-1.518-1.8636-1.1422 0-1.5781 0.73644-0.42082 0.73644-0.42082 2.1041v4.088h-1.5931v-8.1008h1.2625l0.22544 1.0821h0.0752q0.37573-0.60117 1.007-0.91679t1.3977-0.31562q1.8486 0 2.4648 1.3226h0.0751q0.40579-0.67632 1.0821-0.99193 0.69135-0.33064 1.4729-0.33064zm14.233 0q1.3827 0 2.074 0.70638t0.69135 2.2694v5.2753h-1.5931v-5.0649q0-1.8636-1.518-1.8636-1.0971 0-1.563 0.66129-0.45088 0.66129-0.45088 1.9238v4.3435h-1.5931v-5.0649q0-1.8636-1.518-1.8636-1.1422 0-1.5781 0.73644-0.42082 0.73644-0.42082 2.1041v4.088h-1.5931v-8.1008h1.2625l0.22544 1.0821h0.0752q0.37573-0.60117 1.007-0.91679t1.3977-0.31562q1.8486 0 2.4648 1.3226h0.0752q0.40579-0.67632 1.0821-0.99193 0.69134-0.33064 1.4729-0.33064zm12.339 4.1781q0 2.029-1.037 3.1261-1.037 1.0971-2.7954 1.0971-1.0971 0-1.9538-0.49597-0.84164-0.49597-1.3376-1.4278-0.48094-0.94685-0.48094-2.2995 0-1.9989 1.022-3.081 1.022-1.0971 2.7954-1.0971 1.1122 0 1.9538 0.49597 0.85667 0.48094 1.3376 1.4128 0.49596 0.93182 0.49596 2.2694zm-5.9666 0q0 1.3677 0.511 2.1642 0.52602 0.78152 1.6532 0.78152 1.1122 0 1.6232-0.78152 0.52603-0.79655 0.52603-2.1642 0-1.3526-0.52603-2.1191-0.51099-0.76649-1.6382-0.76649t-1.6382 0.76649q-0.511 0.76649-0.511 2.1191zm12.084-4.1781q1.4278 0 2.1642 0.70638 0.75147 0.70638 0.75147 2.2694v5.2753h-1.5781v-5.0498q0-1.8787-1.6682-1.8787-1.2474 0-1.7133 0.73644t-0.46591 2.1041v4.088h-1.5931v-8.1008h1.2625l0.22544 1.0971h0.0751q0.40579-0.63123 1.0821-0.93182 0.67632-0.31562 1.4578-0.31562zm11.032 8.2511h-1.6081v-10.731h6.0418v1.3827h-4.4336v3.5018h4.1481v1.3827h-4.1481zm9.3031-10.731q2.0891 0 3.051 0.84164 0.9769 0.84164 0.9769 2.3596 0 0.90176-0.40579 1.6983-0.39076 0.78152-1.3226 1.2775-0.91678 0.48094-2.5099 0.48094h-1.1573v4.0729h-1.6382v-10.731zm-0.1052 1.3677h-1.2625v3.9226h0.99194q1.3526 0 2.044-0.45088 0.69135-0.46591 0.69135-1.5781 0-0.93182-0.60117-1.4128-0.58614-0.48094-1.8636-0.48094zm14.879 9.3633-3.2463-9.1228h-0.0601q0.015 0.31562 0.0451 0.82661 0.0301 0.49597 0.0451 1.0821 0.015 0.58614 0.015 1.1573v6.0568h-1.4729v-10.731h2.3145l3.081 8.6118h0.0601l3.1712-8.6118h2.3145v10.731h-1.5781v-6.147q0-0.511 0.015-1.0671 0.0301-0.57111 0.0451-1.0671 0.0301-0.49597 0.0451-0.82661h-0.0601l-3.3365 9.1078zm16.096-4.0729q0 2.029-1.037 3.1261-1.037 1.0971-2.7954 1.0971-1.0971 0-1.9538-0.49597-0.84164-0.49597-1.3376-1.4278-0.48094-0.94685-0.48094-2.2995 0-1.9989 1.022-3.081 1.022-1.0971 2.7954-1.0971 1.1122 0 1.9538 0.49597 0.85667 0.48094 1.3376 1.4128 0.49597 0.93182 0.49597 2.2694zm-5.9666 0q0 1.3677 0.511 2.1642 0.52603 0.78152 1.6532 0.78152 1.1122 0 1.6232-0.78152 0.52602-0.79655 0.52602-2.1642 0-1.3526-0.52602-2.1191-0.511-0.76649-1.6382-0.76649-1.1272 0-1.6382 0.76649t-0.511 2.1191zm12.084-4.1781q1.4278 0 2.1642 0.70638 0.75147 0.70638 0.75147 2.2694v5.2753h-1.5781v-5.0498q0-1.8787-1.6682-1.8787-1.2474 0-1.7133 0.73644t-0.46591 2.1041v4.088h-1.5931v-8.1008h1.2625l0.22544 1.0971h0.0751q0.40579-0.63123 1.0821-0.93182 0.67632-0.31562 1.4578-0.31562zm12.489 4.1781q0 2.029-1.037 3.1261-1.037 1.0971-2.7954 1.0971-1.0971 0-1.9538-0.49597-0.84164-0.49597-1.3376-1.4278-0.48094-0.94685-0.48094-2.2995 0-1.9989 1.022-3.081 1.022-1.0971 2.7954-1.0971 1.1122 0 1.9538 0.49597 0.85667 0.48094 1.3376 1.4128 0.49597 0.93182 0.49597 2.2694zm-5.9666 0q0 1.3677 0.51099 2.1642 0.52603 0.78152 1.6532 0.78152 1.1122 0 1.6232-0.78152 0.52603-0.79655 0.52603-2.1642 0-1.3526-0.52603-2.1191-0.511-0.76649-1.6382-0.76649-1.1272 0-1.6382 0.76649-0.51099 0.76649-0.51099 2.1191zm11.963-4.1781q0.51099 0 0.93181 0.09018l-0.18035 1.4879q-0.18035-0.04509-0.42082-0.07515t-0.48093-0.03006q-0.57112 0-1.0821 0.30059-0.511 0.28556-0.84164 0.85667-0.31562 0.55608-0.31562 1.3677v4.2533h-1.5931v-8.1008h1.2625l0.21041 1.4428h0.0751q0.37573-0.64626 0.99194-1.1122 0.6162-0.48094 1.4428-0.48094zm5.2903 0q1.5931 0 2.5099 0.99193 0.91679 0.9769 0.91679 2.6752v0.88673h-5.4406q0.0301 1.2324 0.66129 1.8937 0.63123 0.66129 1.7735 0.66129 0.76649 0 1.3677-0.13526 0.61621-0.15029 1.2474-0.43585v1.3226q-0.6162 0.27053-1.2474 0.40579-0.6162 0.13526-1.4729 0.13526-1.1723 0-2.074-0.46591-0.88673-0.46591-1.3977-1.3827-0.49596-0.93182-0.49596-2.2995 0-1.3526 0.45088-2.2995 0.46591-0.94685 1.2775-1.4428 0.82661-0.511 1.9238-0.511zm0.015 1.2324q-0.8717 0-1.3827 0.55608-0.51099 0.55608-0.6162 1.5781h3.8174q-0.015-0.94685-0.46591-1.533-0.43585-0.60117-1.3526-0.60117zm9.4534-1.2324q1.4578 0 2.3446 1.0521t0.88673 3.1261q0 2.074-0.90176 3.1562-0.90176 1.0671-2.3596 1.0671-0.93182 0-1.518-0.34567-0.58614-0.34567-0.91679-0.78152h-0.0902q0.0301 0.2555 0.0601 0.64626 0.0301 0.37573 0.0301 0.67632v3.2614h-1.5931v-11.708h1.3076l0.21041 1.0821h0.0751q0.34568-0.511 0.91679-0.8717 0.58614-0.3607 1.548-0.3607zm-0.40579 1.3226q-1.1122 0-1.5781 0.64626-0.45088 0.64626-0.48094 1.9688v0.24047q0 1.3977 0.43585 2.1492 0.45088 0.75146 1.6532 0.75146 0.99193 0 1.4729-0.79655 0.49596-0.81158 0.49596-2.1191 0-1.3226-0.49596-2.074-0.48094-0.7665-1.5029-0.7665zm12.835 2.8556q0 2.029-1.037 3.1261-1.037 1.0971-2.7954 1.0971-1.0971 0-1.9538-0.49597-0.84164-0.49597-1.3376-1.4278-0.48094-0.94685-0.48094-2.2995 0-1.9989 1.022-3.081 1.022-1.0971 2.7954-1.0971 1.1122 0 1.9538 0.49597 0.85667 0.48094 1.3376 1.4128 0.49597 0.93182 0.49597 2.2694zm-5.9666 0q0 1.3677 0.51099 2.1642 0.52603 0.78152 1.6532 0.78152 1.1122 0 1.6232-0.78152 0.52603-0.79655 0.52603-2.1642 0-1.3526-0.52603-2.1191-0.51099-0.76649-1.6382-0.76649t-1.6382 0.76649q-0.51099 0.76649-0.51099 2.1191z" fill="#f0f6fc" stroke-width=".93934" aria-label="Welcome To The Common FP Monorepo"/>
</svg>
